<?xml version="1.0" encoding="UTF-8"?><svg id="Layer_1" xmlns="http://www.w3.org/2000/svg" xmlns:xlink="http://www.w3.org/1999/xlink" viewBox="0 0 183.1 62.66"><defs><style>.cls-1{fill:none;}.cls-2{clip-path:url(#clippath);}.cls-3,.cls-4{fill:#015071;}.cls-5,.cls-6{fill:#fff;}.cls-7,.cls-8{fill:#7a9a3d;}.cls-9{fill:#4d8d40;}.cls-9,.cls-8,.cls-10,.cls-6,.cls-4{fill-rule:evenodd;}.cls-10{fill:#057681;}</style><clipPath id="clippath"><path class="cls-1" d="M10.39,23.6c0,10.57,8.57,19.13,19.13,19.13s19.13-8.56,19.13-19.13S40.08,4.47,29.52,4.47,10.39,13.03,10.39,23.6"/></clipPath></defs><g><path class="cls-10" d="M88.5,23.73c0,10.56-8.56,19.13-19.13,19.13s-19.13-8.56-19.13-19.13S58.81,4.6,69.37,4.6s19.13,8.56,19.13,19.13"/><path class="cls-9" d="M127.78,23.73c0,10.56-8.56,19.13-19.13,19.13s-19.13-8.56-19.13-19.13,8.57-19.13,19.13-19.13,19.13,8.56,19.13,19.13"/><path class="cls-8" d="M167.35,23.73c0,10.56-8.56,19.13-19.13,19.13s-19.13-8.56-19.13-19.13,8.56-19.13,19.13-19.13,19.13,8.56,19.13,19.13"/><path class="cls-5" d="M68.78,34.97h-8.59V12.93h8.59c6.93,0,11.71,4.75,11.71,10.95v.06c0,6.2-4.78,11.02-11.71,11.02m6.64-11.02c0-3.91-2.67-6.64-6.64-6.64h-3.75v13.29h3.75c3.97,0,6.64-2.68,6.64-6.58v-.06Z"/><path class="cls-5" d="M108.63,34.97h-8.6V12.93h8.6c6.93,0,11.71,4.75,11.71,10.95v.06c0,6.2-4.78,11.02-11.71,11.02m6.64-11.02c0-3.91-2.68-6.64-6.64-6.64h-3.75v13.29h3.75c3.97,0,6.64-2.68,6.64-6.58v-.06Z"/><rect class="cls-5" x="145.12" y="12.93" width="4.85" height="22.04"/><path class="cls-4" d="M48.65,23.6c0,10.57-8.56,19.13-19.13,19.13S10.39,34.16,10.39,23.6,18.96,4.47,29.52,4.47s19.13,8.56,19.13,19.13"/></g><g class="cls-2"><path class="cls-6" d="M25.62,31.46c-.1-.56-.25-1.12-.44-1.65l2.88-2.79-.97-1.68-3.86,1.1c-.37-.43-.77-.83-1.2-1.2l1.1-3.86-1.69-.97-2.79,2.89c-.53-.19-1.08-.34-1.65-.44l-.97-3.89h-1.95l-.97,3.89c-.57,.1-1.12,.25-1.65,.44l-2.79-2.89-1.69,.97,1.1,3.86c-.43,.37-.83,.77-1.2,1.2l-3.86-1.1-.97,1.68,2.88,2.79c-.19,.53-.34,1.08-.44,1.65l-3.89,.97v1.95l3.89,.97c.1,.57,.25,1.12,.44,1.65l-2.89,2.79,.97,1.69,3.86-1.11,1.21,1.21-1.11,3.86,1.69,.97,2.79-2.88c.53,.19,1.08,.34,1.64,.44l.97,3.9h1.95l.97-3.9c.56-.1,1.11-.25,1.64-.44l2.79,2.88,1.69-.97-1.1-3.86s.83-.77,1.2-1.21l3.86,1.11,.97-1.69-2.88-2.79c.19-.53,.34-1.08,.44-1.65l3.89-.97v-1.95l-3.89-.97Zm-4.69,1.95c0,3.24-2.63,5.87-5.87,5.87s-5.87-2.63-5.87-5.87,2.63-5.87,5.87-5.87,5.87,2.63,5.87,5.87"/><path class="cls-5" d="M16.24,48.12h-2.36l-.98-3.93c-.46-.09-.91-.21-1.35-.36l-2.82,2.91-2.05-1.18,1.12-3.91-.99-.98-3.91,1.12-1.18-2.05,2.91-2.82c-.15-.44-.27-.9-.36-1.35l-3.93-.98v-2.36l3.93-.98c.09-.46,.21-.92,.36-1.36l-2.91-2.81,1.18-2.04,3.9,1.12c.31-.35,.64-.68,.99-.99l-1.12-3.9,2.05-1.18,2.81,2.91c.44-.15,.9-.27,1.36-.36l.98-3.93h2.36l.98,3.93c.46,.09,.92,.21,1.36,.36l2.81-2.91,2.05,1.18-1.12,3.9c.35,.31,.68,.64,.99,.99l3.9-1.12,1.18,2.04-2.91,2.81c.15,.44,.27,.9,.36,1.36l3.93,.98v2.36l-3.93,.98c-.09,.46-.21,.91-.36,1.35l2.91,2.82-1.18,2.05-3.9-1.12c-.31,.34-.77,.78-.99,.98l1.12,3.91-2.05,1.18-2.82-2.91c-.44,.15-.9,.27-1.35,.36l-.98,3.93Zm-1.95-.53h1.53l.97-3.86,.17-.03c.54-.1,1.08-.24,1.6-.43l.16-.06,2.77,2.86,1.33-.77-1.09-3.82,.12-.11s.83-.76,1.18-1.18l.11-.13,3.83,1.1,.77-1.33-2.86-2.76,.06-.16c.18-.52,.33-1.06,.43-1.61l.03-.17,3.86-.96v-1.54l-3.86-.97-.03-.17c-.1-.54-.24-1.08-.43-1.6l-.06-.16,2.86-2.76-.77-1.33-3.83,1.09-.11-.13c-.36-.42-.75-.82-1.18-1.17l-.13-.11,1.09-3.83-1.33-.77-2.76,2.86-.16-.06c-.52-.19-1.06-.33-1.61-.43l-.17-.03-.97-3.86h-1.53l-.96,3.86-.17,.03c-.55,.1-1.09,.24-1.61,.43l-.16,.06-2.77-2.86-1.33,.77,1.1,3.83-.13,.11c-.42,.36-.82,.76-1.17,1.17l-.11,.13-3.83-1.09-.77,1.33,2.86,2.76-.06,.16c-.18,.52-.33,1.06-.43,1.6l-.03,.17-3.86,.97v1.54l3.86,.96,.03,.17c.1,.55,.24,1.08,.43,1.61l.06,.16-2.86,2.76,.77,1.33,3.81-1.09,1.42,1.42-1.09,3.81,1.33,.77,2.77-2.86,.16,.06c.52,.19,1.06,.33,1.6,.43l.17,.03,.96,3.86Zm.77-8.06c-3.38,0-6.13-2.75-6.13-6.13s2.75-6.13,6.13-6.13,6.13,2.75,6.13,6.13-2.75,6.13-6.13,6.13m0-11.73c-3.09,0-5.6,2.51-5.6,5.6s2.51,5.6,5.6,5.6,5.6-2.51,5.6-5.6-2.51-5.6-5.6-5.6"/><path class="cls-6" d="M45.48,22.27c0,4.41-3.58,7.99-7.99,7.99s-7.99-3.58-7.99-7.99,3.58-7.99,7.99-7.99,7.99,3.58,7.99,7.99"/><path class="cls-5" d="M37.49,30.53c-4.55,0-8.26-3.7-8.26-8.26s3.71-8.26,8.26-8.26,8.26,3.7,8.26,8.26-3.7,8.26-8.26,8.26m0-15.99c-4.26,0-7.73,3.47-7.73,7.73s3.47,7.73,7.73,7.73,7.73-3.47,7.73-7.73-3.47-7.73-7.73-7.73"/><polygon class="cls-6" points="38.73 14.33 38.04 11.58 36.93 11.58 36.25 14.33 35.81 14.22 36.58 11.13 38.39 11.13 39.17 14.22 38.73 14.33"/><polyline class="cls-6" points="38.95 14.27 38.22 11.35 36.76 11.35 36.03 14.27"/><polygon class="cls-6" points="29.44 23.95 26.35 23.17 26.35 21.36 29.44 20.59 29.55 21.03 26.8 21.71 26.8 22.82 29.55 23.51 29.44 23.95"/><polyline class="cls-6" points="29.49 20.81 26.57 21.54 26.57 23 29.49 23.73"/><polygon class="cls-6" points="45.56 23.95 45.45 23.51 48.2 22.82 48.2 21.71 45.45 21.03 45.56 20.59 48.65 21.36 48.65 23.17 45.56 23.95"/><polyline class="cls-6" points="45.5 23.73 48.42 23 48.42 21.54 45.5 20.81"/><polygon class="cls-6" points="44.35 17.84 43.96 17.6 45.46 15.19 44.69 14.4 42.23 15.82 42.01 15.43 44.76 13.83 46.02 15.13 44.35 17.84"/><polyline class="cls-6" points="44.16 17.72 45.74 15.16 44.72 14.11 42.12 15.62"/><polygon class="cls-6" points="44.76 30.69 42.01 29.09 42.23 28.7 44.69 30.12 45.46 29.33 43.96 26.92 44.35 26.68 46.03 29.39 44.76 30.69"/><polyline class="cls-6" points="42.12 28.9 44.72 30.41 45.74 29.36 44.16 26.8"/><polygon class="cls-6" points="30.66 17.59 28.98 14.88 30.25 13.58 33 15.18 32.77 15.57 30.32 14.15 29.55 14.95 31.04 17.35 30.66 17.59"/><polyline class="cls-6" points="32.89 15.38 30.28 13.87 29.27 14.92 30.85 17.47"/><polygon class="cls-6" points="30.25 30.69 28.98 29.39 30.66 26.68 31.04 26.92 29.55 29.33 30.32 30.12 32.77 28.7 33 29.09 30.25 30.69"/><polyline class="cls-6" points="30.85 26.8 29.27 29.36 30.28 30.41 32.89 28.9"/><polygon class="cls-6" points="38.39 33.41 36.58 33.41 35.81 30.32 36.25 30.21 36.93 32.95 38.04 32.95 38.73 30.21 39.17 30.32 38.39 33.41"/><polyline class="cls-6" points="36.03 30.26 36.76 33.18 38.22 33.18 38.95 30.26"/><path class="cls-4" d="M41.23,22.11c0,2.07-1.67,3.74-3.74,3.74s-3.74-1.67-3.74-3.74,1.67-3.74,3.74-3.74,3.74,1.67,3.74,3.74"/><path class="cls-5" d="M37.49,26.12c-2.21,0-4.01-1.8-4.01-4s1.8-4,4.01-4,4,1.8,4,4-1.8,4-4,4m0-7.48c-1.92,0-3.48,1.56-3.48,3.47s1.56,3.47,3.48,3.47,3.47-1.56,3.47-3.47-1.56-3.47-3.47-3.47"/><path class="cls-6" d="M26.05,9.07c0,3.75-3.04,6.79-6.79,6.79s-6.8-3.04-6.8-6.79,3.04-6.79,6.8-6.79,6.79,3.04,6.79,6.79"/><path class="cls-5" d="M19.26,16.12c-3.89,0-7.06-3.16-7.06-7.06s3.17-7.06,7.06-7.06,7.06,3.17,7.06,7.06-3.17,7.06-7.06,7.06m0-13.59c-3.6,0-6.53,2.93-6.53,6.53s2.93,6.53,6.53,6.53,6.53-2.93,6.53-6.53-2.93-6.53-6.53-6.53"/><polygon class="cls-6" points="20.06 2.38 19.52 .24 18.99 .24 18.45 2.38 17.58 2.16 18.28 -.66 20.23 -.66 20.94 2.16 20.06 2.38"/><polyline class="cls-6" points="20.5 2.27 19.88 -.21 18.63 -.21 18.01 2.27"/><polygon class="cls-6" points="12.35 10.75 9.53 10.04 9.53 8.09 12.35 7.39 12.57 8.26 10.43 8.8 10.43 9.33 12.57 9.87 12.35 10.75"/><polyline class="cls-6" points="12.46 7.82 9.98 8.44 9.98 9.69 12.46 10.31"/><polygon class="cls-6" points="26.18 10.75 25.96 9.87 28.1 9.33 28.1 8.8 25.96 8.26 26.18 7.39 29 8.09 29 10.04 26.18 10.75"/><polyline class="cls-6" points="26.07 10.31 28.55 9.69 28.55 8.44 26.07 7.82"/><polygon class="cls-6" points="25.31 5.44 24.54 4.97 25.7 3.09 25.33 2.7 23.42 3.81 22.97 3.03 25.49 1.57 26.84 2.97 25.31 5.44"/><polyline class="cls-6" points="24.93 5.2 26.27 3.03 25.41 2.14 23.19 3.42"/><polygon class="cls-6" points="25.49 16.55 22.97 15.09 23.42 14.31 25.33 15.42 25.7 15.03 24.54 13.16 25.31 12.68 26.84 15.16 25.49 16.55"/><polyline class="cls-6" points="23.19 14.7 25.41 15.98 26.27 15.09 24.93 12.92"/><polygon class="cls-6" points="13.23 5.23 11.7 2.75 13.05 1.36 16.82 3.44 15.12 3.6 13.21 2.49 12.84 2.88 14 4.76 13.23 5.23"/><polyline class="cls-6" points="15.35 3.21 13.13 1.92 12.27 2.82 13.62 4.99"/><polygon class="cls-6" points="13.05 16.55 11.7 15.16 13.23 12.68 14 13.16 12.84 15.03 13.21 15.42 15.12 14.31 15.57 15.09 13.05 16.55"/><polyline class="cls-6" points="13.62 12.92 12.27 15.09 13.13 15.98 15.35 14.7"/><polygon class="cls-6" points="20.23 18.79 18.28 18.79 17.58 15.97 18.45 15.75 18.99 17.89 19.52 17.89 20.06 15.75 20.94 15.97 20.23 18.79"/><polyline class="cls-6" points="18.01 15.86 18.63 18.34 19.88 18.34 20.5 15.86"/><path class="cls-4" d="M22.43,8.93c0,1.76-1.42,3.18-3.18,3.18s-3.18-1.42-3.18-3.18,1.42-3.18,3.18-3.18,3.18,1.42,3.18,3.18"/><path class="cls-5" d="M19.26,12.38c-1.9,0-3.44-1.54-3.44-3.45s1.54-3.44,3.44-3.44,3.44,1.54,3.44,3.44-1.54,3.45-3.44,3.45m0-6.36c-1.61,0-2.91,1.31-2.91,2.91s1.31,2.92,2.91,2.92,2.91-1.31,2.91-2.92-1.31-2.91-2.91-2.91"/></g><g><path class="cls-3" d="M16.07,52.37c.56,0,1.07,.15,1.51,.44,.44,.29,.78,.7,1.02,1.23,.24,.53,.36,1.12,.36,1.78s-.12,1.27-.37,1.79c-.24,.52-.59,.92-1.04,1.21-.45,.29-.97,.43-1.55,.43h-2.21v-6.86h2.27Zm-.11,5.83c.58,0,1.04-.22,1.39-.66,.35-.44,.53-1.02,.53-1.73s-.18-1.32-.53-1.75c-.35-.43-.83-.64-1.43-.64h-1.08v4.79h1.11Z"/><path class="cls-3" d="M22.93,52.37l2.39,6.86h-1.11l-.56-1.67h-2.41l-.52,1.67h-1.1l2.24-6.86h1.07Zm-1.37,4.19h1.75l-.92-2.72-.83,2.72Z"/><polygon class="cls-3" points="30.22 52.37 30.22 53.4 28.29 53.4 28.29 59.23 27.25 59.23 27.25 53.4 25.32 53.4 25.32 52.37 30.22 52.37"/><path class="cls-3" d="M33.52,52.37l2.39,6.86h-1.11l-.56-1.67h-2.41l-.52,1.67h-1.1l2.24-6.86h1.07Zm-1.37,4.19h1.75l-.92-2.72-.83,2.72Z"/><path class="cls-3" d="M41.83,52.37c.56,0,1.07,.15,1.51,.44,.44,.29,.78,.7,1.02,1.23,.24,.53,.36,1.12,.36,1.78s-.12,1.27-.37,1.79c-.24,.52-.59,.92-1.04,1.21-.45,.29-.97,.43-1.55,.43h-2.21v-6.86h2.27Zm-.11,5.83c.58,0,1.04-.22,1.39-.66,.35-.44,.53-1.02,.53-1.73s-.18-1.32-.53-1.75c-.35-.43-.83-.64-1.43-.64h-1.08v4.79h1.11Z"/><path class="cls-3" d="M48.88,52.28c.56,0,1.07,.15,1.52,.44,.45,.29,.81,.71,1.07,1.27,.27,.55,.4,1.16,.4,1.81s-.13,1.24-.39,1.79c-.26,.55-.62,.97-1.07,1.28-.45,.3-.97,.46-1.53,.46s-1.07-.15-1.53-.46c-.46-.31-.82-.73-1.07-1.27s-.38-1.13-.38-1.79,.13-1.22,.38-1.77c.26-.55,.61-.98,1.06-1.29,.45-.31,.97-.46,1.55-.46m-1.91,3.52c0,.46,.08,.87,.24,1.23,.16,.36,.39,.64,.68,.84,.29,.2,.62,.3,.99,.3,.56,0,1.01-.22,1.37-.66,.36-.44,.54-1.01,.54-1.71,0-.45-.08-.86-.24-1.23-.16-.37-.39-.65-.68-.85-.29-.2-.62-.3-.99-.3s-.7,.1-.99,.3c-.29,.2-.52,.48-.68,.84-.16,.36-.24,.77-.24,1.23"/><path class="cls-3" d="M56.09,52.28c.31,0,.61,.04,.91,.13,.29,.09,.61,.24,.95,.45v1.25c-.33-.24-.64-.42-.93-.53-.28-.11-.58-.16-.89-.16-.39,0-.73,.1-1.04,.3-.31,.2-.55,.48-.72,.85-.17,.37-.26,.78-.26,1.22s.09,.87,.26,1.23c.17,.36,.41,.64,.72,.84,.31,.2,.66,.3,1.05,.3,.3,0,.58-.05,.85-.16,.27-.11,.61-.3,1.02-.58v1.25c-.35,.23-.67,.4-.97,.5-.3,.1-.64,.15-1.03,.15-.57,0-1.08-.14-1.53-.43-.45-.29-.8-.7-1.06-1.25-.26-.54-.39-1.14-.39-1.78,0-.69,.13-1.31,.4-1.86,.27-.55,.63-.97,1.09-1.27,.47-.3,.99-.45,1.57-.45"/><path class="cls-3" d="M60.41,52.37v3.99c0,.41,.05,.74,.15,.98,.1,.24,.25,.44,.47,.6,.22,.16,.48,.23,.77,.23,.32,0,.59-.07,.82-.22,.22-.15,.39-.35,.49-.61,.1-.26,.16-.61,.16-1.07v-3.91h1.05v4.08c0,.92-.22,1.63-.66,2.13-.44,.5-1.05,.74-1.85,.74-.5,0-.94-.11-1.31-.34-.37-.22-.65-.55-.84-.98-.19-.43-.29-.93-.29-1.51v-4.13h1.05Z"/><polygon class="cls-3" points="66.81 52.37 68.59 55.07 70.38 52.37 71.31 52.37 71.31 59.23 70.26 59.23 70.26 54.41 70.23 54.41 68.66 56.83 68.52 56.83 66.95 54.41 66.92 54.41 66.92 59.23 65.87 59.23 65.87 52.37 66.81 52.37"/><polygon class="cls-3" points="76.41 52.37 76.41 53.4 73.95 53.4 73.95 55.21 76.3 55.21 76.3 56.24 73.95 56.24 73.95 58.19 76.46 58.19 76.46 59.23 72.9 59.23 72.9 52.37 76.41 52.37"/><polygon class="cls-3" points="78.76 52.37 81.98 57.15 81.98 52.37 83 52.37 83 59.23 82.1 59.23 78.86 54.36 78.86 59.23 77.84 59.23 77.84 52.37 78.76 52.37"/><polygon class="cls-3" points="89.09 52.37 89.09 53.4 87.17 53.4 87.17 59.23 86.12 59.23 86.12 53.4 84.19 53.4 84.19 52.37 89.09 52.37"/><path class="cls-3" d="M92.4,52.37l2.39,6.86h-1.11l-.56-1.67h-2.41l-.52,1.67h-1.1l2.24-6.86h1.07Zm-1.37,4.19h1.75l-.92-2.72-.83,2.72Z"/><polygon class="cls-3" points="99.68 52.37 99.68 53.4 97.76 53.4 97.76 59.23 96.71 59.23 96.71 53.4 94.79 53.4 94.79 52.37 99.68 52.37"/><rect class="cls-3" x="100.9" y="52.37" width="1.05" height="6.86"/><path class="cls-3" d="M106.34,52.28c.56,0,1.07,.15,1.52,.44,.45,.29,.81,.71,1.07,1.27,.27,.55,.4,1.16,.4,1.81s-.13,1.24-.39,1.79c-.26,.55-.62,.97-1.07,1.28-.45,.3-.97,.46-1.53,.46s-1.07-.15-1.53-.46c-.46-.31-.82-.73-1.07-1.27-.26-.54-.38-1.13-.38-1.79s.13-1.22,.38-1.77c.26-.55,.61-.98,1.06-1.29,.45-.31,.97-.46,1.55-.46m-1.91,3.52c0,.46,.08,.87,.24,1.23,.16,.36,.39,.64,.68,.84,.29,.2,.62,.3,.99,.3,.56,0,1.01-.22,1.37-.66,.36-.44,.54-1.01,.54-1.71,0-.45-.08-.86-.24-1.23-.16-.37-.39-.65-.68-.85-.29-.2-.62-.3-.99-.3s-.7,.1-.99,.3c-.29,.2-.52,.48-.68,.84-.16,.36-.24,.77-.24,1.23"/><polygon class="cls-3" points="111.63 52.37 114.85 57.15 114.85 52.37 115.88 52.37 115.88 59.23 114.98 59.23 111.74 54.36 111.74 59.23 110.71 59.23 110.71 52.37 111.63 52.37"/><rect class="cls-3" x="120.1" y="52.37" width="1.05" height="6.86"/><polygon class="cls-3" points="123.68 52.37 126.9 57.15 126.9 52.37 127.93 52.37 127.93 59.23 127.03 59.23 123.78 54.36 123.78 59.23 122.76 59.23 122.76 52.37 123.68 52.37"/><rect class="cls-3" x="129.54" y="52.37" width="1.05" height="6.86"/><polygon class="cls-3" points="136.7 52.37 136.7 53.4 134.78 53.4 134.78 59.23 133.73 59.23 133.73 53.4 131.8 53.4 131.8 52.37 136.7 52.37"/><rect class="cls-3" x="137.92" y="52.37" width="1.05" height="6.86"/><path class="cls-3" d="M143.33,52.37l2.39,6.86h-1.11l-.56-1.67h-2.41l-.52,1.67h-1.1l2.24-6.86h1.07Zm-1.37,4.19h1.75l-.92-2.72-.83,2.72Z"/><polygon class="cls-3" points="150.62 52.37 150.62 53.4 148.69 53.4 148.69 59.23 147.65 59.23 147.65 53.4 145.72 53.4 145.72 52.37 150.62 52.37"/><rect class="cls-3" x="151.83" y="52.37" width="1.05" height="6.86"/><polygon class="cls-3" points="155.05 52.37 156.58 56.77 158.07 52.37 159.17 52.37 156.78 59.32 156.41 59.32 153.94 52.37 155.05 52.37"/><polygon class="cls-3" points="163.71 52.37 163.71 53.4 161.25 53.4 161.25 55.21 163.61 55.21 163.61 56.24 161.25 56.24 161.25 58.19 163.76 58.19 163.76 59.23 160.21 59.23 160.21 52.37 163.71 52.37"/><path class="cls-7" d="M165.81,9.09c0-.66,.16-1.28,.49-1.86,.33-.57,.78-1.03,1.37-1.37,.58-.34,1.21-.51,1.88-.51s1.31,.17,1.89,.5c.58,.33,1.03,.79,1.35,1.37,.33,.58,.49,1.2,.49,1.86s-.17,1.32-.5,1.9c-.34,.58-.79,1.03-1.37,1.36-.58,.33-1.2,.49-1.86,.49s-1.3-.17-1.88-.51c-.59-.34-1.04-.8-1.37-1.36-.33-.57-.49-1.19-.49-1.87m.69,0c0,.56,.14,1.07,.41,1.54,.28,.47,.65,.84,1.11,1.11,.46,.27,.97,.4,1.52,.4s1.07-.14,1.54-.41c.47-.27,.85-.65,1.12-1.12,.27-.47,.41-.98,.41-1.53s-.14-1.05-.41-1.52c-.28-.47-.65-.84-1.12-1.12-.47-.27-.98-.41-1.54-.41s-1.05,.14-1.52,.41c-.47,.27-.84,.64-1.12,1.12-.27,.47-.41,.98-.41,1.52m3.41-1.97c.37,0,.67,.1,.89,.3,.23,.2,.35,.47,.35,.79s-.1,.57-.3,.78c-.2,.21-.47,.33-.8,.36v.02c.14,.05,.28,.13,.4,.25,.12,.12,.28,.35,.49,.71l.47,.8h-.9l-.19-.35c-.16-.33-.31-.59-.45-.79-.14-.2-.27-.34-.37-.41-.11-.07-.25-.11-.44-.11h-.33v1.66h-.73V7.13h1.92Zm-.28,1.74c.24,0,.42-.05,.55-.15,.13-.1,.19-.24,.19-.42s-.07-.32-.2-.42c-.14-.1-.32-.14-.54-.14h-.9v1.14h.9Z"/></g></svg>